<svg width="173" height="38" viewBox="0 0 173 38" fill="none" xmlns="http://www.w3.org/2000/svg">
<path d="M39.7737 30.8899C39.7737 34.3057 37.0521 37.0327 33.7068 37.0327H10.1196C6.77432 37.0327 4.05273 34.3057 4.05273 30.8899V7.00797C4.05273 3.62085 6.77432 0.865234 10.1196 0.865234H33.7068C37.0521 0.865234 39.7737 3.62085 39.7737 7.00797V30.8899Z" fill="#213358"/>
<path d="M39.7824 30.89C39.7824 34.2828 37.0664 37.0327 33.7155 37.0327H10.1283C6.77737 37.0327 4.05859 34.2828 4.05859 30.89V7.00798C4.05859 3.61511 6.77737 0.865234 10.1283 0.865234H33.7155C37.0664 0.865234 39.7824 3.61511 39.7824 7.00798V30.89Z" fill="#034B5B"/>
<path d="M0 4.95166H16.7202V31.2211H0" fill="#FF7D44"/>
<path d="M16.6123 31.7511L36.3722 31.9233L16.6123 31.7224V31.7511Z" fill="#65AFCD"/>
<path d="M30.7589 17.5712L25.3441 9.96458C24.607 8.9312 24.0116 8.07009 23.6998 7.61084H16.6123V31.7225L36.3722 31.9234V19.8676L30.7589 17.5712Z" fill="#F7F7F7"/>
<path d="M27.9805 32.727H37.3643V29.0815H27.9805V32.727Z" fill="#003B49"/>
<path d="M22.9341 31.4643C22.9341 34.9949 20.0991 37.8653 16.6121 37.8653C13.0967 37.8653 10.2617 34.9949 10.2617 31.4643C10.2617 27.9337 13.0967 25.0632 16.6121 25.0632C20.0991 25.0632 22.9341 27.9337 22.9341 31.4643Z" fill="black"/>
<path d="M16.6119 34.9086C14.7408 34.9086 13.21 33.3585 13.21 31.464C13.21 29.5696 14.7408 28.0195 16.6119 28.0195C18.4547 28.0195 19.9856 29.5696 19.9856 31.464C19.9856 33.3585 18.4547 34.9086 16.6119 34.9086Z" fill="#F7F7F7"/>
<path d="M24.9187 12.7202L20.4678 17.2268H28.1222L24.9187 12.7202Z" fill="#003B49"/>
<path d="M23.3313 10.4812L18.4268 15.447V17.2267H18.6536L24.1534 11.6581L23.3313 10.4812Z" fill="#003B49"/>
<path d="M20.6097 9.61987H18.4268V11.8014L20.6097 9.61987Z" fill="#003B49"/>
<path d="M51.264 27.8652L57.312 9.98523H62.256L68.304 27.8652H64.248L63.048 24.2172H56.496L55.296 27.8652H51.264ZM57.528 20.9772H62.016L59.28 12.5292H60.288L57.528 20.9772ZM75.7414 28.1532C74.3494 28.1532 73.1414 27.8492 72.1174 27.2412C71.0934 26.6172 70.3014 25.7852 69.7414 24.7452C69.1814 23.7052 68.9014 22.5532 68.9014 21.2892C68.9014 19.9772 69.1894 18.8092 69.7654 17.7852C70.3574 16.7612 71.1494 15.9532 72.1414 15.3612C73.1334 14.7692 74.2534 14.4732 75.5014 14.4732C76.5414 14.4732 77.4614 14.6412 78.2614 14.9772C79.0614 15.2972 79.7334 15.7532 80.2774 16.3452C80.8374 16.9372 81.2614 17.6252 81.5494 18.4092C81.8374 19.1772 81.9814 20.0172 81.9814 20.9292C81.9814 21.1852 81.9654 21.4412 81.9334 21.6972C81.9174 21.9372 81.8774 22.1452 81.8134 22.3212H71.9974V19.6812H79.7734L78.0694 20.9292C78.2294 20.2412 78.2214 19.6332 78.0454 19.1052C77.8694 18.5612 77.5574 18.1372 77.1094 17.8332C76.6774 17.5132 76.1414 17.3532 75.5014 17.3532C74.8774 17.3532 74.3414 17.5052 73.8934 17.8092C73.4454 18.1132 73.1094 18.5612 72.8854 19.1532C72.6614 19.7452 72.5734 20.4652 72.6214 21.3132C72.5574 22.0492 72.6454 22.6972 72.8854 23.2572C73.1254 23.8172 73.4934 24.2572 73.9894 24.5772C74.4854 24.8812 75.0854 25.0332 75.7894 25.0332C76.4294 25.0332 76.9734 24.9052 77.4214 24.6492C77.8854 24.3932 78.2454 24.0412 78.5014 23.5932L81.3814 24.9612C81.1254 25.6012 80.7174 26.1612 80.1574 26.6412C79.6134 27.1212 78.9654 27.4972 78.2134 27.7692C77.4614 28.0252 76.6374 28.1532 75.7414 28.1532ZM84.1013 27.8652V14.7612H87.4613V17.9052L87.2213 17.4492C87.5093 16.3452 87.9813 15.6012 88.6373 15.2172C89.3093 14.8172 90.1013 14.6172 91.0133 14.6172H91.7813V17.7372H90.6533C89.7733 17.7372 89.0613 18.0092 88.5173 18.5532C87.9733 19.0812 87.7013 19.8332 87.7013 20.8092V27.8652H84.1013ZM99.8631 28.1532C98.5671 28.1532 97.3831 27.8572 96.3111 27.2652C95.2551 26.6732 94.4071 25.8652 93.7671 24.8412C93.1431 23.8012 92.8311 22.6252 92.8311 21.3132C92.8311 19.9852 93.1431 18.8092 93.7671 17.7852C94.4071 16.7612 95.2551 15.9532 96.3111 15.3612C97.3831 14.7692 98.5671 14.4732 99.8631 14.4732C101.159 14.4732 102.335 14.7692 103.391 15.3612C104.447 15.9532 105.287 16.7612 105.911 17.7852C106.551 18.8092 106.871 19.9852 106.871 21.3132C106.871 22.6252 106.551 23.8012 105.911 24.8412C105.287 25.8652 104.447 26.6732 103.391 27.2652C102.335 27.8572 101.159 28.1532 99.8631 28.1532ZM99.8631 24.9132C100.519 24.9132 101.087 24.7612 101.567 24.4572C102.063 24.1532 102.447 23.7292 102.719 23.1852C103.007 22.6412 103.151 22.0172 103.151 21.3132C103.151 20.6092 103.007 19.9932 102.719 19.4652C102.447 18.9212 102.063 18.4972 101.567 18.1932C101.087 17.8732 100.519 17.7132 99.8631 17.7132C99.2071 17.7132 98.6311 17.8732 98.1351 18.1932C97.6391 18.4972 97.2471 18.9212 96.9591 19.4652C96.6871 19.9932 96.5511 20.6092 96.5511 21.3132C96.5511 22.0172 96.6871 22.6412 96.9591 23.1852C97.2471 23.7292 97.6391 24.1532 98.1351 24.4572C98.6311 24.7612 99.2071 24.9132 99.8631 24.9132Z" fill="white"/>
<path d="M109.256 27.8652V9.98523H112.976V24.6252H120.536V27.8652H109.256ZM128.621 28.1532C127.325 28.1532 126.141 27.8572 125.069 27.2652C124.013 26.6732 123.165 25.8652 122.525 24.8412C121.901 23.8012 121.589 22.6252 121.589 21.3132C121.589 19.9852 121.901 18.8092 122.525 17.7852C123.165 16.7612 124.013 15.9532 125.069 15.3612C126.141 14.7692 127.325 14.4732 128.621 14.4732C129.917 14.4732 131.093 14.7692 132.149 15.3612C133.205 15.9532 134.045 16.7612 134.669 17.7852C135.309 18.8092 135.629 19.9852 135.629 21.3132C135.629 22.6252 135.309 23.8012 134.669 24.8412C134.045 25.8652 133.205 26.6732 132.149 27.2652C131.093 27.8572 129.917 28.1532 128.621 28.1532ZM128.621 24.9132C129.277 24.9132 129.845 24.7612 130.325 24.4572C130.821 24.1532 131.205 23.7292 131.477 23.1852C131.765 22.6412 131.909 22.0172 131.909 21.3132C131.909 20.6092 131.765 19.9932 131.477 19.4652C131.205 18.9212 130.821 18.4972 130.325 18.1932C129.845 17.8732 129.277 17.7132 128.621 17.7132C127.965 17.7132 127.389 17.8732 126.893 18.1932C126.397 18.4972 126.005 18.9212 125.717 19.4652C125.445 19.9932 125.309 20.6092 125.309 21.3132C125.309 22.0172 125.445 22.6412 125.717 23.1852C126.005 23.7292 126.397 24.1532 126.893 24.4572C127.389 24.7612 127.965 24.9132 128.621 24.9132ZM144.182 33.1452C143.174 33.1452 142.238 32.9772 141.374 32.6412C140.51 32.3052 139.766 31.8332 139.142 31.2252C138.534 30.6332 138.094 29.9292 137.822 29.1132L141.158 27.9372C141.334 28.5452 141.694 29.0252 142.238 29.3772C142.782 29.7292 143.43 29.9052 144.182 29.9052C144.774 29.9052 145.286 29.7932 145.718 29.5692C146.15 29.3612 146.478 29.0492 146.702 28.6332C146.942 28.2172 147.062 27.7292 147.062 27.1692V24.1692L147.758 25.0332C147.31 25.7692 146.734 26.3212 146.03 26.6892C145.326 27.0412 144.502 27.2172 143.558 27.2172C142.342 27.2172 141.254 26.9452 140.294 26.4012C139.334 25.8412 138.582 25.0812 138.038 24.1212C137.494 23.1452 137.222 22.0412 137.222 20.8092C137.222 19.5772 137.494 18.4892 138.038 17.5452C138.582 16.5852 139.326 15.8332 140.27 15.2892C141.214 14.7452 142.286 14.4732 143.486 14.4732C144.43 14.4732 145.254 14.6652 145.958 15.0492C146.662 15.4172 147.262 15.9852 147.758 16.7532L147.302 17.6172V14.7612H150.662V27.1692C150.662 28.3212 150.382 29.3452 149.822 30.2412C149.262 31.1532 148.494 31.8652 147.518 32.3772C146.558 32.8892 145.446 33.1452 144.182 33.1452ZM144.062 23.9532C144.67 23.9532 145.198 23.8252 145.646 23.5692C146.094 23.3132 146.438 22.9532 146.678 22.4892C146.934 22.0252 147.062 21.4812 147.062 20.8572C147.062 20.2332 146.934 19.6892 146.678 19.2252C146.422 18.7452 146.07 18.3772 145.622 18.1212C145.174 17.8492 144.654 17.7132 144.062 17.7132C143.454 17.7132 142.91 17.8492 142.43 18.1212C141.966 18.3772 141.598 18.7452 141.326 19.2252C141.07 19.6892 140.942 20.2332 140.942 20.8572C140.942 21.4652 141.07 22.0012 141.326 22.4652C141.598 22.9292 141.966 23.2972 142.43 23.5692C142.91 23.8252 143.454 23.9532 144.062 23.9532ZM153.312 27.8652V14.7612H156.912V27.8652H153.312ZM153.312 13.5852V9.98523H156.912V13.5852H153.312ZM158.515 27.8652L163.099 21.2892L158.491 14.7612H162.667L166.123 19.8492H164.299L167.755 14.7612H171.931L167.323 21.2892L171.883 27.8652H167.731L164.347 22.7772H166.075L162.691 27.8652H158.515Z" fill="#FF7D44"/>
</svg>
