<svg version="1.2" xmlns="http://www.w3.org/2000/svg" viewBox="0 0 64 65" width="64" height="65"><defs><clipPath clipPathUnits="userSpaceOnUse" id="cp1"><path d="m0 0.87h64v64h-64z"/></clipPath></defs><style>.a{fill:#ffd038}</style><g clip-path="url(#cp1)"><path fill-rule="evenodd" class="a" d="m29.3 63.5c0 0.8-0.6 1.4-1.3 1.4h-16c-6.6 0-12-5.4-12-12v-40c0-6.7 5.4-12 12-12h24c6.6 0 12 5.3 12 12v10.6c0 0.8-0.6 1.4-1.3 1.4-0.8 0-1.4-0.6-1.4-1.4v-10.6c0-5.2-4.2-9.4-9.3-9.4h-24c-5.1 0-9.3 4.2-9.3 9.4v40c0 5.1 4.2 9.3 9.3 9.3h16c0.7 0 1.3 0.6 1.3 1.3zm6.7-46.6h-24c-0.7 0-1.3-0.6-1.3-1.4 0-0.7 0.6-1.3 1.3-1.3h24c0.7 0 1.3 0.6 1.3 1.3 0 0.8-0.6 1.4-1.3 1.4zm-5.3 13.3h-18.7c-0.7 0-1.3-0.6-1.3-1.3 0-0.8 0.6-1.4 1.3-1.4h18.7c0.7 0 1.3 0.6 1.3 1.4 0 0.7-0.6 1.3-1.3 1.3zm-8 10.7c0.7 0 1.3 0.6 1.3 1.3 0 0.7-0.6 1.3-1.3 1.3h-10.7c-0.7 0-1.3-0.6-1.3-1.3 0-0.7 0.6-1.3 1.3-1.3zm41.3 6.6c0 9.6-7.7 17.4-17.3 17.4-9.6 0-17.3-7.8-17.3-17.4 0-9.5 7.7-17.3 17.3-17.3 9.6 0 17.3 7.8 17.3 17.3zm-2.6 0c0-8.1-6.6-14.6-14.7-14.6-8.1 0-14.7 6.5-14.7 14.6 0 8.1 6.6 14.7 14.7 14.7 8.1 0 14.7-6.6 14.7-14.7zm-7.1-2.3c0.5 0.6 0.5 1.4 0 1.9l-5.9 5.7c-1 0.9-2.2 1.4-3.5 1.4-1.3 0-2.5-0.5-3.5-1.4l-3-3c-0.5-0.5-0.6-1.3 0-1.9 0.5-0.5 1.3-0.5 1.8 0l3.1 3c0.9 0.8 2.3 0.8 3.2 0l5.9-5.7c0.6-0.5 1.4-0.5 1.9 0z"/></g></svg>