<svg width="30" height="30" viewBox="0 0 30 30" fill="none" xmlns="http://www.w3.org/2000/svg">
<g clip-path="url(#clip0_34_578)">
<path d="M26.8751 1.25H30.0001V0H26.8751C25.1513 0 23.7501 1.4025 23.7501 3.125V21.415L3.43883 27.7262L1.39133 21.495C1.20883 20.9475 1.23883 20.3862 1.47633 19.9137C1.69508 19.4788 2.07133 19.155 2.54758 18.9975L4.33508 18.37L5.39758 21.6525L19.6713 17.0375L18.6813 13.98L21.2488 13.1712V11.8463L18.2963 12.7887L16.8738 8.3975C16.6126 7.60375 16.0588 6.96125 15.3126 6.585C14.5676 6.21 13.7201 6.1475 12.9338 6.40625L4.59383 9.0725C2.95633 9.6125 2.06508 11.3825 2.60258 13.015L3.95133 17.18L2.14758 17.8125C1.36258 18.0713 0.728831 18.6175 0.360081 19.3512C-0.0286688 20.1225 -0.0824188 21.0238 0.205081 21.8863L2.24633 28.095L0.0550812 28.7775L0.426331 29.9712L21.9276 23.29C21.4988 23.9662 21.2501 24.7675 21.2501 25.625C21.2501 28.0375 23.2126 30 25.6251 30C28.0376 30 30.0001 28.0375 30.0001 25.625C30.0001 23.2125 28.0376 21.25 25.6251 21.25C25.4126 21.25 25.2038 21.265 25.0001 21.295V3.125C25.0001 2.09125 25.8413 1.25 26.8751 1.25ZM3.89758 11.1962C4.12258 10.7487 4.50883 10.4162 4.97883 10.2612L13.3201 7.595C13.5126 7.53125 13.7113 7.5 13.9101 7.5C14.1976 7.5 14.4863 7.5675 14.7526 7.70125C15.1988 7.92625 15.5313 8.3125 15.6876 8.785L18.0988 16.2325L6.20258 20.0788L3.79008 12.6275C3.63383 12.1525 3.67133 11.6438 3.89758 11.1962ZM28.7501 25.625C28.7501 27.3475 27.3488 28.75 25.6251 28.75C23.9013 28.75 22.5001 27.3475 22.5001 25.625C22.5001 23.9025 23.9013 22.5 25.6251 22.5C27.3488 22.5 28.7501 23.9025 28.7501 25.625Z" fill="#FF7D44"/>
</g>
<defs>
<clipPath id="clip0_34_578">
<rect width="30" height="30" fill="white"/>
</clipPath>
</defs>
</svg>
