<svg width="30" height="30" viewBox="0 0 30 30" fill="none" xmlns="http://www.w3.org/2000/svg">
<g clip-path="url(#clip0_34_576)">
<path d="M0.625 20H18.125C18.47 20 18.75 19.72 18.75 19.375V6.25C18.75 3.4925 16.5075 1.25 13.75 1.25H5C2.2425 1.25 0 3.4925 0 6.25V19.375C0 19.72 0.28 20 0.625 20ZM1.25 6.25C1.25 4.1825 2.9325 2.5 5 2.5H13.75C15.8175 2.5 17.5 4.1825 17.5 6.25V18.75H1.25V6.25ZM6.25 5.625V15.625C6.25 15.97 5.97 16.25 5.625 16.25C5.28 16.25 5 15.97 5 15.625V5.625C5 5.28 5.28 5 5.625 5C5.97 5 6.25 5.28 6.25 5.625ZM10 5.625V15.625C10 15.97 9.72 16.25 9.375 16.25C9.03 16.25 8.75 15.97 8.75 15.625V5.625C8.75 5.28 9.03 5 9.375 5C9.72 5 10 5.28 10 5.625ZM13.75 5.625V15.625C13.75 15.97 13.47 16.25 13.125 16.25C12.78 16.25 12.5 15.97 12.5 15.625V5.625C12.5 5.28 12.78 5 13.125 5C13.47 5 13.75 5.28 13.75 5.625ZM29.96 15.405C29.9 14.8075 29.775 14.2188 29.5837 13.6475L28.4575 10.2663C27.78 8.2375 25.8875 6.875 23.75 6.875C22.3713 6.875 21.25 7.99625 21.25 9.375V22.5H0.625C0.28 22.5 0 22.78 0 23.125V25C0 26.0575 0.45 27.0713 1.235 27.7812C1.92625 28.4062 2.82875 28.7488 3.75875 28.7488C3.88375 28.7488 4.01 28.7425 4.135 28.73C5.26 28.6175 6.24 27.9613 6.8475 27.0263C7.515 28.0625 8.67875 28.75 10 28.75C12.0675 28.75 13.75 27.0675 13.75 25V23.75H21.25V25C21.25 27.0675 22.9325 28.75 25 28.75C27.0675 28.75 28.75 27.0675 28.75 25V23.6425C29.4775 23.385 30 22.69 30 21.875V16.2175C30 16.0625 29.9788 15.72 29.96 15.405ZM23.75 8.125C25.3487 8.125 26.7638 9.145 27.27 10.6625L28.3962 14.0437C28.5012 14.3575 28.5825 14.6763 28.6413 15.0013H22.5V9.375C22.5 8.68625 23.06 8.125 23.75 8.125ZM4.01 27.4862C3.29125 27.5638 2.60375 27.3337 2.07375 26.8538C1.55125 26.3813 1.25 25.705 1.25 25V23.75H6.25V24.8213C6.25 26.19 5.26625 27.3612 4.01 27.4862ZM12.5 25C12.5 26.3787 11.3787 27.5 10 27.5C8.62125 27.5 7.5 26.3787 7.5 25C7.5 24.9813 7.5 24.9625 7.4975 24.9438C7.4975 24.9025 7.5 24.8625 7.5 24.8213V23.75H12.5V25ZM25 27.5C23.6213 27.5 22.5 26.3787 22.5 25V23.75H27.5V25C27.5 26.3787 26.3787 27.5 25 27.5ZM28.125 22.5H22.5V16.25H28.75V21.875C28.75 22.22 28.4688 22.5 28.125 22.5Z" fill="#FF7D44"/>
</g>
<defs>
<clipPath id="clip0_34_576">
<rect width="30" height="30" fill="white"/>
</clipPath>
</defs>
</svg>
