<svg width="31" height="31" viewBox="0 0 31 31" fill="none" xmlns="http://www.w3.org/2000/svg">
<path d="M29.7083 25.8333C29.3658 25.8333 29.0372 25.9694 28.795 26.2117C28.5528 26.4539 28.4167 26.7824 28.4167 27.125C28.4167 27.5693 27.5357 28.4167 26.1562 28.4167C25.7687 28.4303 25.383 28.3575 25.0271 28.2036C24.6713 28.0496 24.3541 27.8184 24.0986 27.5267C24.1491 27.4444 24.2043 27.365 24.264 27.289C26.3704 25.0799 27.7871 22.3045 28.3405 19.3027C28.5043 18.3995 28.3422 17.4675 27.883 16.6727C27.4239 15.878 26.6975 15.2719 25.8333 14.9627V11.625C25.8333 10.2547 25.289 8.94055 24.32 7.97162C23.3511 7.00268 22.037 6.45833 20.6667 6.45833V5.16667C20.6667 3.79638 20.1223 2.48222 19.1534 1.51328C18.1844 0.544344 16.8703 0 15.5 0C14.1297 0 12.8156 0.544344 11.8466 1.51328C10.8777 2.48222 10.3333 3.79638 10.3333 5.16667V6.45833C8.96305 6.45833 7.64889 7.00268 6.67995 7.97162C5.71101 8.94055 5.16667 10.2547 5.16667 11.625V14.9459C4.29168 15.2481 3.55381 15.8536 3.08659 16.6528C2.61937 17.4519 2.45367 18.3919 2.6195 19.3027C3.18674 22.3082 4.61719 25.0833 6.73604 27.289C6.79803 27.367 6.85539 27.4485 6.90783 27.5332C6.65213 27.8259 6.33383 28.0573 5.97651 28.2102C5.6192 28.3632 5.23204 28.4337 4.84375 28.4167C3.43712 28.4167 2.58333 27.5203 2.58333 27.125C2.58333 26.7824 2.44725 26.4539 2.20501 26.2117C1.96278 25.9694 1.63424 25.8333 1.29167 25.8333C0.949095 25.8333 0.620555 25.9694 0.37832 26.2117C0.136086 26.4539 0 26.7824 0 27.125C0 29.2253 2.21908 31 4.84375 31C6.14986 31.0118 7.41662 30.5533 8.41262 29.7083C9.40604 30.538 10.6583 30.9942 11.9526 30.998C13.2469 31.0017 14.5018 30.5529 15.5 29.729C16.5019 30.552 17.7592 31.0002 19.0558 30.9964C20.3524 30.9927 21.6071 30.5372 22.6042 29.7083C23.5942 30.5488 24.8524 31.007 26.1511 31C28.7809 31 31 29.2253 31 27.125C31 26.7824 30.8639 26.4539 30.6217 26.2117C30.3794 25.9694 30.0509 25.8333 29.7083 25.8333ZM12.9167 5.16667C12.9167 4.48152 13.1888 3.82444 13.6733 3.33997C14.1578 2.85551 14.8149 2.58333 15.5 2.58333C16.1851 2.58333 16.8422 2.85551 17.3267 3.33997C17.8112 3.82444 18.0833 4.48152 18.0833 5.16667V6.45833H12.9167V5.16667ZM10.3333 9.04167H20.6667C21.3518 9.04167 22.0089 9.31384 22.4934 9.79831C22.9778 10.2828 23.25 10.9399 23.25 11.625V14.105L16.7245 11.9634C15.9312 11.7025 15.0752 11.7025 14.282 11.9634L7.75 14.096V11.625C7.75 10.9399 8.02217 10.2828 8.50664 9.79831C8.99111 9.31384 9.64819 9.04167 10.3333 9.04167ZM11.9479 28.4167C11.5162 28.4403 11.0857 28.3517 10.6984 28.1595C10.3111 27.9674 9.98018 27.6781 9.73787 27.32C9.46882 26.6751 9.09911 26.0769 8.64254 25.5479C6.86186 23.7043 5.65442 21.3836 5.16667 18.8674C5.10703 18.5579 5.16056 18.2372 5.31751 17.9639C5.47446 17.6905 5.72438 17.4826 6.02175 17.3781L14.2083 14.703V27.125C14.2083 27.5693 13.3274 28.4167 11.9479 28.4167ZM19.0521 28.4167C17.6455 28.4167 16.7917 27.5203 16.7917 27.125V14.7043L24.9356 17.3768C25.234 17.4811 25.485 17.6891 25.6429 17.9629C25.8008 18.2368 25.8551 18.5582 25.7959 18.8687C25.3222 21.3816 24.1275 23.7023 22.3575 25.5479C21.898 26.0777 21.528 26.6789 21.2621 27.3278C21.0197 27.6853 20.6886 27.9736 20.3011 28.1645C19.9137 28.3554 19.4832 28.4423 19.0521 28.4167Z" fill="#FF7D44"/>
</svg>
