<svg width="31" height="31" viewBox="0 0 31 31" fill="none" xmlns="http://www.w3.org/2000/svg">
<path d="M13.8038 31C13.2527 30.9998 12.7096 30.8683 12.2194 30.6164C11.7291 30.3645 11.3059 29.9994 10.9845 29.5513C10.6632 29.1032 10.453 28.585 10.3714 28.0395C10.2898 27.4941 10.3391 26.937 10.5152 26.4143L13.021 19.3646H7.95117L6.55615 21.4926C6.20402 22.0311 5.72324 22.4732 5.15735 22.7788C4.59146 23.0845 3.95833 23.244 3.3153 23.243C2.78415 23.2429 2.26086 23.1146 1.78986 22.8689C1.31885 22.6231 0.914033 22.2673 0.609762 21.8316C0.30549 21.3958 0.110749 20.893 0.0420689 20.3659C-0.0266115 19.8387 0.0327962 19.3028 0.215249 18.8035L1.41781 15.4861L0.202332 12.1765C0.0194427 11.6781 -0.0407106 11.1429 0.02697 10.6163C0.0946506 10.0896 0.28817 9.58711 0.591131 9.15126C0.951056 8.69099 1.41659 8.3244 1.94824 8.08259C2.47989 7.84078 3.06197 7.73088 3.6451 7.76222C4.22823 7.79356 4.7952 7.96521 5.29793 8.26261C5.80065 8.56001 6.22428 8.97439 6.5329 9.47058L7.94729 11.6076H13.021L10.5203 4.57853C10.3413 4.0533 10.29 3.49291 10.3707 2.94386C10.4513 2.3948 10.6616 1.8729 10.9841 1.42146C11.3682 0.933158 11.8682 0.548751 12.4387 0.303214C13.0091 0.0576771 13.6318 -0.0411953 14.2502 0.0155934C14.8685 0.0723822 15.4629 0.283029 15.9791 0.628367C16.4954 0.973706 16.9172 1.44277 17.2061 1.99288L22.7048 11.6076H26.9842C27.9184 11.5959 28.827 11.9131 29.5511 12.5039C30.2753 13.0947 30.769 13.9215 30.9458 14.8397C31.0398 15.396 31.0113 15.9662 30.8624 16.5104C30.7135 17.0546 30.4478 17.5598 30.0837 17.9906C29.7197 18.4214 29.2661 18.7676 28.7547 19.0049C28.2432 19.2422 27.6862 19.3649 27.1224 19.3646H22.7048L17.1932 29.0013C16.8591 29.6079 16.3682 30.1135 15.7719 30.4651C15.1756 30.8167 14.4959 31.0015 13.8038 31ZM7.25366 16.7789H14.8514C15.0576 16.7807 15.2604 16.8316 15.4431 16.9273C15.6257 17.0231 15.783 17.161 15.9019 17.3296C16.0208 17.4983 16.0979 17.6928 16.1268 17.8971C16.1557 18.1015 16.1356 18.3098 16.0681 18.5048L12.9552 27.2611C12.9136 27.3925 12.9036 27.5318 12.926 27.6677C12.9485 27.8037 13.0027 27.9323 13.0843 28.0433C13.2146 28.1725 13.3736 28.269 13.5483 28.325C13.723 28.3809 13.9084 28.3947 14.0894 28.3652C14.2704 28.3357 14.4419 28.2637 14.5898 28.1552C14.7377 28.0467 14.8579 27.9047 14.9405 27.7408L20.8345 17.4253C20.9481 17.2284 21.1115 17.065 21.3084 16.9515C21.5052 16.838 21.7285 16.7785 21.9557 16.7789H27.1224C27.3112 16.779 27.4978 16.7377 27.6689 16.6578C27.84 16.5779 27.9915 16.4615 28.1128 16.3166C28.2341 16.1718 28.3222 16.0021 28.3709 15.8196C28.4196 15.637 28.4278 15.4459 28.3947 15.2599C28.3182 14.9467 28.1361 14.6696 27.8791 14.4753C27.6221 14.281 27.306 14.1814 26.9842 14.1933H21.9557C21.7285 14.1937 21.5052 14.1342 21.3084 14.0207C21.1115 13.9072 20.9481 13.7438 20.8345 13.5469L14.9508 3.25468C14.8724 3.08542 14.7541 2.93768 14.6062 2.8241C14.4583 2.71052 14.2851 2.63448 14.1014 2.60246C13.9178 2.57045 13.7291 2.58342 13.5515 2.64026C13.3739 2.69711 13.2128 2.79614 13.0818 2.92889C12.9991 3.04338 12.9451 3.17602 12.9242 3.3157C12.9033 3.45538 12.9161 3.59804 12.9616 3.73173L16.0617 12.4674C16.129 12.6619 16.1491 12.8696 16.1206 13.0735C16.092 13.2773 16.0155 13.4715 15.8973 13.64C15.7792 13.8085 15.6228 13.9465 15.4409 14.0427C15.2591 14.1389 15.057 14.1905 14.8514 14.1933H7.25366C7.04027 14.1933 6.83019 14.1404 6.64221 14.0394C6.45422 13.9383 6.29418 13.7922 6.17639 13.6141L4.37707 10.8992C4.08256 10.3549 3.04146 10.0756 2.71079 10.6277C2.64325 10.722 2.60021 10.8316 2.58556 10.9467C2.5709 11.0618 2.58508 11.1788 2.62683 11.287L4.01152 15.044C4.11726 15.3319 4.11726 15.6481 4.01152 15.936L2.63458 19.6981C2.59619 19.8064 2.58427 19.9222 2.59983 20.036C2.61539 20.1498 2.65796 20.2582 2.72399 20.3522C2.79002 20.4461 2.87758 20.5229 2.97934 20.576C3.0811 20.6291 3.19408 20.657 3.30884 20.6574C3.52336 20.6575 3.73453 20.6041 3.92328 20.5021C4.11203 20.4001 4.27243 20.2526 4.38999 20.073L6.16735 17.3581C6.28598 17.1787 6.44746 17.0318 6.63715 16.9307C6.82683 16.8295 7.03874 16.7774 7.25366 16.7789Z" fill="#FF7D44"/>
</svg>
