<svg width="64" height="65" viewBox="0 0 64 65" fill="none" xmlns="http://www.w3.org/2000/svg">
<g clip-path="url(#clip0_22_807)">
<path d="M37.3333 35.5319H42.6667V38.1986H37.3333V35.5319ZM48 38.1986H53.3333V35.5319H48V38.1986ZM37.3333 48.8652H42.6667V46.1986H37.3333V48.8652ZM48 48.8652H53.3333V46.1986H48V48.8652ZM37.3333 16.8652H42.6667V14.1986H37.3333V16.8652ZM48 16.8652H53.3333V14.1986H48V16.8652ZM37.3333 27.5319H42.6667V24.8652H37.3333V27.5319ZM48 27.5319H53.3333V24.8652H48V27.5319ZM64 7.5319V64.8652H0V23.0759C0 21.2946 0.693333 19.6199 1.952 18.3612L9.17067 11.1426C12.064 8.24923 17.2667 8.24923 20.16 11.1426L26.664 17.6466V7.5319C26.664 3.85723 29.656 0.865234 33.3307 0.865234H57.3307C61.0053 0.865234 64 3.85723 64 7.5319ZM26.6667 23.0759C26.6667 22.0066 26.2507 21.0039 25.496 20.2466L18.2773 13.0279C16.376 11.1266 12.96 11.1266 11.0587 13.0279L3.83733 20.2466C3.08267 21.0039 2.66667 22.0066 2.66667 23.0759V62.1986H26.6667V23.0759ZM61.3333 7.5319C61.3333 5.32657 59.5387 3.5319 57.3333 3.5319H33.3333C31.128 3.5319 29.3333 5.32657 29.3333 7.5319V62.1986H61.3333V7.5319ZM10.6667 38.1986H18.6667V35.5319H10.6667V38.1986ZM10.6667 27.5319H18.6667V24.8652H10.6667V27.5319ZM10.6667 48.8652H18.6667V46.1986H10.6667V48.8652Z" fill="#FF7D44"/>
</g>
<defs>
<clipPath id="clip0_22_807">
<rect width="64" height="64" fill="white" transform="translate(0 0.865234)"/>
</clipPath>
</defs>
</svg>
