<svg width="20" height="20" viewBox="0 0 20 20" fill="none" xmlns="http://www.w3.org/2000/svg">
<g clip-path="url(#clip0_50_401)">
<path d="M10 20C4.48583 20 0 15.5142 0 10C0 4.48583 4.48583 0 10 0C15.5142 0 20 4.48583 20 10C20 15.5142 15.5142 20 10 20ZM10 0.833333C4.94583 0.833333 0.833333 4.94583 0.833333 10C0.833333 15.0542 4.94583 19.1667 10 19.1667C15.0542 19.1667 19.1667 15.0542 19.1667 10C19.1667 4.94583 15.0542 0.833333 10 0.833333ZM12.8367 15.8333C9.10917 15.8333 4.16667 10.89 4.16667 7.1625C4.16667 6.35917 4.47083 5.61333 5.0225 5.06167L5.585 4.57083C6.09 4.06167 7.06583 4.04333 7.6125 4.59L8.55083 5.80583C8.78917 6.03833 8.94 6.40167 8.94 6.78917C8.94 7.17667 8.78917 7.54 8.515 7.81333L7.9325 8.54917C8.66333 10.2342 9.81583 11.39 11.4458 12.07L12.2042 11.4658C12.7692 10.92 13.675 10.9242 14.235 11.4833L15.3692 12.35C15.975 12.9508 15.975 13.87 15.41 14.4342L14.9575 14.955C14.3867 15.5283 13.6408 15.8317 12.8375 15.8317L12.8367 15.8333ZM6.5875 5C6.42417 5 6.26917 5.06417 6.15333 5.18L5.59083 5.67083C5.2175 6.045 5 6.58167 5 7.1625C5 10.6217 9.85917 15 12.8367 15C13.4167 15 13.9542 14.7825 14.3475 14.3883L14.8 13.8675C15.06 13.6075 15.0592 13.2167 14.8192 12.9767L13.685 12.11C13.4042 11.8342 13.0133 11.8342 12.7742 12.0742L11.5875 13.0217L11.365 12.9367C9.34667 12.1658 7.9 10.72 7.065 8.63917L6.975 8.41417L7.89333 7.25917C8.04167 7.1075 8.10583 6.95333 8.10583 6.78917C8.10583 6.625 8.04167 6.47083 7.925 6.355L6.98667 5.13917C6.90583 5.06333 6.75167 5 6.5875 5Z" fill="#FF7D44"/>
</g>
<defs>
<clipPath id="clip0_50_401">
<rect width="20" height="20" fill="white"/>
</clipPath>
</defs>
</svg>
