<svg width="30" height="31" viewBox="0 0 30 31" fill="none" xmlns="http://www.w3.org/2000/svg">
<g clip-path="url(#clip0_27_1006)">
<path d="M15 30.8652C6.72875 30.8652 0 24.1365 0 15.8652C0 7.59398 6.72875 0.865234 15 0.865234C23.2712 0.865234 30 7.59398 30 15.8652C30 24.1365 23.2712 30.8652 15 30.8652ZM15 2.11523C7.41875 2.11523 1.25 8.28398 1.25 15.8652C1.25 23.4465 7.41875 29.6152 15 29.6152C22.5812 29.6152 28.75 23.4465 28.75 15.8652C28.75 8.28398 22.5812 2.11523 15 2.11523ZM18.5 21.9902C18.7763 21.7827 18.8325 21.3915 18.6262 21.1152L15.0013 16.2815V7.74023C15.0013 7.39523 14.7213 7.11523 14.3763 7.11523C14.0313 7.11523 13.7513 7.39523 13.7513 7.74023V16.4902C13.7513 16.6252 13.795 16.7565 13.8762 16.8652L17.6262 21.8652C17.75 22.029 17.9375 22.1152 18.1263 22.1152C18.2563 22.1152 18.3875 22.074 18.5 21.9902Z" fill="#FF7D44"/>
</g>
<defs>
<clipPath id="clip0_27_1006">
<rect width="30" height="30" fill="white" transform="translate(0 0.865234)"/>
</clipPath>
</defs>
</svg>
