<?xml version="1.0" encoding="utf-8"?>
<!-- Generator: Adobe Illustrator 28.1.0, SVG Export Plug-In . SVG Version: 6.00 Build 0)  -->
<svg version="1.1" id="Layer_1" xmlns="http://www.w3.org/2000/svg" xmlns:xlink="http://www.w3.org/1999/xlink" x="0px" y="0px"
	 viewBox="0 0 64 65" style="enable-background:new 0 0 64 65;" xml:space="preserve">
<style type="text/css">
	.st0{fill:#FDD303;}
	.st1{fill:#016BBE;}
</style>
<g>
	<g id="Layer_1_00000121263001881874921770000010103826037412112316_">
		<g>
			<g id="Layer_3">
				<path class="st0" d="M7.2,63.8V51.3c0-7.2,5.8-13,13-13h5l0,0l5.5,3.7l4.9-3.7l0,0h4.9c5.8,0,10.9,3.9,12.5,9.5h4v15.9H7.2z
					 M18.5,22.3c0.1,0,0.3,0.1,0.4,0.1c0.7,0.1,2.5-0.1,5.4-2c0,0,2.4-1.6,6.8-1.6s6.7,1.6,6.7,1.6c2.4,1.8,4.1,2.1,5,2.1
					c0.3,0,0.6,0,0.9-0.1c2.2-0.6,2.2-2.7,1.9-4.1c-0.1-0.5-0.3-1-0.3-1.2c0.2-2.6,0-5.2-0.4-7.7c-0.8-3.4-4.4-5.6-7.7-6
					c-2.1-0.3-4.1-0.7-6.1-1.3c-2,0.6-4,1.1-6.1,1.3c-3.2,0.4-6.8,2.6-7.7,6c-0.5,2.6-0.6,5.2-0.5,7.9c-0.1,0.3-0.2,0.8-0.3,1.4
					C16.3,19.9,16.3,21.7,18.5,22.3L18.5,22.3L18.5,22.3z"/>
			</g>
			<g id="Layer_4">
				<path class="st1" d="M7.1,64.7h49.7c0.6,0,1-0.5,1-1V47.8c0-0.6-0.5-1-1-1h-3.2c-1.9-5.7-7.2-9.5-13.2-9.5h-3.6v-3
					c3.9-2.4,6.5-6.4,6.9-11c3.1-0.8,3.4-3.4,2.6-6.4c0-0.2,0.3-4.4-0.5-7.9c-1-4.1-5.1-6.4-8.5-6.8c-1.3-0.2-2.6-0.4-3.9-0.7
					c-0.5-2-4.3-2-4.8,0c-1.3,0.3-2.5,0.6-3.8,0.7C21.5,2.6,17.4,5,16.4,9c-0.9,4.1-0.4,7.6-0.5,8c-0.8,2.7-0.6,5.2,2.1,6.1
					c0.4,4.1,2.5,7.8,5.8,10.3v3.8h-3.6c-7.8,0-14.1,6.3-14.1,14v13.2C6.1,65,6.8,65.2,7.1,64.7L7.1,64.7L7.1,64.7z M55.9,49v13.7
					H34.4V49h6.9v5c0,0.4,0.2,0.8,0.6,0.9c0.8,0.4,1.2-0.2,3.2-1.6c2.2,1.6,2.2,1.7,2.7,1.7c0.6,0,1-0.5,1-1v-5H55.9z M43.5,51.9V49
					h3.3v2.9C45.1,50.6,45.3,50.5,43.5,51.9z M18.3,9.5c0.7-3,3.9-4.9,6.8-5.2c2-0.3,4-0.7,6-1.3c2,0.6,4,1,6,1.3
					c2.8,0.4,6.1,2.3,6.8,5.2c0.4,2.3,0.5,4.6,0.4,6.9c-12.5-5.9-22.5-2-26.4,0.1C17.8,14.1,17.9,11.8,18.3,9.5L18.3,9.5z
					 M18.7,21.3c-0.7-0.2-1.4-0.6-1.2-2.1c1.3-0.9,12.4-7.8,27.1-0.2c0.2,2-0.7,2.2-1.2,2.4c-3.2,0.9-4.5-3.6-12.3-3.6
					c-4.7,0-7.2,1.7-7.3,1.8C22.6,20.2,20.1,21.6,18.7,21.3L18.7,21.3z M20,23.3c1.8-0.4,3.4-1.1,4.9-2.2c0,0,2.2-1.4,6.2-1.4
					c6.4,0,6.6,2.8,10.6,3.6c-0.5,4-2.8,7.5-6.4,9.5C28.8,36.1,21.2,31.5,20,23.3L20,23.3z M34.8,35.3v2.3l-4.2,3.2l-4.8-3.3v-2.8
					C28.6,36.1,31.8,36.3,34.8,35.3L34.8,35.3L34.8,35.3z M8.1,51.3c0-6.6,5.4-12,12.1-12h4.5l4.7,3.3v9.4c0,0.6,0.5,1,1.1,1
					c0.6,0,1-0.5,1-1v-9.5l4.3-3.3h4.6c4.8,0.1,11,7.5,11,7.5H33.2c-0.6,0-1,0.5-1,1v14.9H18.7V52.5c0-0.5-0.4-1-0.9-1.1
					c-0.6-0.1-1.1,0.4-1.1,1v10.2H8.1V51.3L8.1,51.3z"/>
			</g>
		</g>
	</g>
</g>
</svg>
