<svg width="64" height="65" viewBox="0 0 64 65" fill="none" xmlns="http://www.w3.org/2000/svg">
<g clip-path="url(#clip0_22_813)">
<path d="M44.4453 38.5372L46.2213 40.5266C45.9627 40.7559 39.784 46.1986 32 46.1986C24.216 46.1986 18.0373 40.7559 17.7787 40.5266L19.5547 38.5372C19.6107 38.5879 25.2533 43.5319 32 43.5319C38.7467 43.5319 44.3893 38.5879 44.4453 38.5372ZM64 32.8652V64.8652H32C14.3547 64.8652 0 50.5106 0 32.8652C0 15.2199 14.3547 0.865234 32 0.865234C49.6453 0.865234 64 15.2199 64 32.8652ZM61.3333 32.8652C61.3333 16.6919 48.1733 3.5319 32 3.5319C15.8267 3.5319 2.66667 16.6919 2.66667 32.8652C2.66667 49.0386 15.8267 62.1986 32 62.1986H61.3333V32.8652ZM21.3333 30.1986C22.8053 30.1986 24 29.0039 24 27.5319C24 26.0599 22.8053 24.8652 21.3333 24.8652C19.8613 24.8652 18.6667 26.0599 18.6667 27.5319C18.6667 29.0039 19.8613 30.1986 21.3333 30.1986ZM42.6667 30.1986C44.1387 30.1986 45.3333 29.0039 45.3333 27.5319C45.3333 26.0599 44.1387 24.8652 42.6667 24.8652C41.1947 24.8652 40 26.0599 40 27.5319C40 29.0039 41.1947 30.1986 42.6667 30.1986Z" fill="#FF7D44"/>
</g>
<defs>
<clipPath id="clip0_22_813">
<rect width="64" height="64" fill="white" transform="translate(0 0.865234)"/>
</clipPath>
</defs>
</svg>
