<svg width="20" height="20" viewBox="0 0 20 20" fill="none" xmlns="http://www.w3.org/2000/svg">
<g clip-path="url(#clip0_50_396)">
<path d="M16.25 1.66675H6.25C4.175 1.66675 2.5 3.34175 2.5 5.41675V12.9167C2.5 14.9917 4.175 16.6667 6.25 16.6667H16.25C18.325 16.6667 20 14.9917 20 12.9167V5.41675C20 3.34175 18.325 1.66675 16.25 1.66675ZM16.25 2.50008C17.0417 2.50008 17.7667 2.81675 18.2917 3.33341L13.3167 8.30841C12.175 9.45008 10.3333 9.45008 9.19167 8.30841L4.20833 3.33341C4.73333 2.81675 5.45833 2.50008 6.25 2.50008H16.25ZM19.1667 12.9167C19.1667 14.5251 17.8583 15.8334 16.25 15.8334H6.25C4.64167 15.8334 3.33333 14.5251 3.33333 12.9167V5.41675C3.33333 4.90008 3.46667 4.42508 3.7 4.00008L8.6 8.90008C9.33333 9.63341 10.2917 10.0001 11.25 10.0001C12.2083 10.0001 13.1667 9.63341 13.9 8.90008L18.8 4.00008C19.0333 4.41675 19.1667 4.90008 19.1667 5.41675V12.9167ZM15 18.7501C15 18.9834 14.8167 19.1667 14.5833 19.1667H3.75C1.68333 19.1667 0 17.4834 0 15.4167V6.25008C0 6.01675 0.183333 5.83341 0.416667 5.83341C0.65 5.83341 0.833333 6.01675 0.833333 6.25008V15.4167C0.833333 17.0251 2.14167 18.3334 3.75 18.3334H14.5833C14.8167 18.3334 15 18.5167 15 18.7501Z" fill="#FF7D44"/>
</g>
<defs>
<clipPath id="clip0_50_396">
<rect width="20" height="20" fill="white"/>
</clipPath>
</defs>
</svg>
