<svg width="26" height="27" viewBox="0 0 26 27" fill="none" xmlns="http://www.w3.org/2000/svg">
<path d="M19.2172 26.0412C10.4036 26.3393 -5.47419 10.5894 1.89779 2.04998L3.14434 0.966027C3.77534 0.356048 4.62114 0.0190595 5.49872 0.0279855C6.3763 0.0369114 7.21508 0.391034 7.83353 1.01372C7.86696 1.04776 7.8981 1.08397 7.92675 1.12212L9.87787 3.65749C10.4708 4.28492 10.8003 5.11604 10.7983 5.97932C10.7962 6.8426 10.4629 7.67216 9.86703 8.29682L8.61181 9.87506C9.30676 11.5629 10.3282 13.0968 11.6174 14.3888C12.9067 15.6809 14.4384 16.7056 16.1247 17.4042L17.7116 16.1414C18.3444 15.5602 19.1719 15.2372 20.0311 15.236C20.8903 15.2348 21.7187 15.5555 22.3531 16.1349L24.8896 18.086C24.9275 18.1146 24.9637 18.1454 24.998 18.1782C25.6235 18.8095 25.9744 19.6622 25.9744 20.5509C25.9744 21.4397 25.6235 22.2924 24.998 22.9237L24.0105 24.0619C23.3841 24.6951 22.6373 25.1964 21.8141 25.5364C20.9908 25.8763 20.1079 26.048 19.2172 26.0412ZM5.46076 2.19415C5.30498 2.19403 5.15071 2.2246 5.00676 2.28412C4.8628 2.34363 4.73198 2.43093 4.62177 2.54101L3.37414 3.62497C-2.74587 10.9829 15.9816 28.6676 22.4236 22.5812L23.4121 21.4419C23.5297 21.3374 23.6253 21.2106 23.6936 21.0688C23.7619 20.9271 23.8014 20.7733 23.81 20.6162C23.8186 20.4591 23.796 20.3019 23.7435 20.1536C23.691 20.0053 23.6097 19.8688 23.5043 19.7521L20.9819 17.815C20.9433 17.7866 20.907 17.7551 20.8735 17.7207C20.6474 17.5052 20.3469 17.385 20.0345 17.385C19.7221 17.385 19.4217 17.5052 19.1956 17.7207C19.1668 17.7499 19.1364 17.7774 19.1045 17.8031L16.9821 19.4941C16.8348 19.6114 16.6594 19.6882 16.4734 19.7171C16.2873 19.746 16.0969 19.7259 15.9209 19.6588C13.7358 18.8448 11.7512 17.5706 10.1015 15.9226C8.45181 14.2746 7.17561 12.2913 6.35936 10.107C6.28709 9.92857 6.26366 9.73409 6.29148 9.54359C6.31929 9.35308 6.39735 9.17341 6.51761 9.02307L8.20208 6.90285C8.22713 6.87074 8.25429 6.84032 8.28338 6.8118C8.50479 6.58849 8.62903 6.28675 8.62903 5.97228C8.62903 5.6578 8.50479 5.35606 8.28338 5.13275C8.24959 5.09904 8.21843 5.06281 8.19016 5.02436L6.25746 2.50524C6.03908 2.30793 5.75507 2.19896 5.46076 2.19957V2.19415ZM24.4224 13.6581C29.8313 5.69641 20.3034 -3.8218 12.3504 1.58605C12.2304 1.66612 12.1277 1.76933 12.0481 1.88961C11.9686 2.00989 11.9139 2.14484 11.8871 2.28654C11.8604 2.42825 11.8622 2.57387 11.8924 2.71487C11.9227 2.85587 11.9807 2.98942 12.0632 3.10769C12.1457 3.22597 12.251 3.32659 12.3729 3.40367C12.4948 3.48075 12.6308 3.53273 12.773 3.55658C12.9153 3.58042 13.0608 3.57565 13.2012 3.54254C13.3415 3.50942 13.4739 3.44864 13.5904 3.36374C19.524 -0.710852 26.7171 6.48987 22.6447 12.4191C22.558 12.5356 22.4955 12.6683 22.4611 12.8093C22.4266 12.9504 22.4209 13.097 22.4441 13.2403C22.4674 13.3836 22.5193 13.5208 22.5966 13.6437C22.6739 13.7667 22.7751 13.8728 22.8943 13.9558C23.0134 14.0388 23.148 14.0971 23.2901 14.1271C23.4322 14.1571 23.5788 14.1583 23.7214 14.1305C23.8639 14.1027 23.9994 14.0466 24.1198 13.9654C24.2403 13.8843 24.3431 13.7797 24.4224 13.6581ZM20.2405 11.6365C20.4437 11.4332 20.5579 11.1576 20.5579 10.8701C20.5579 10.5827 20.4437 10.307 20.2405 10.1038L18.3913 8.25346V5.44602C18.3913 5.15853 18.2771 4.88282 18.0738 4.67954C17.8705 4.47626 17.5948 4.36206 17.3073 4.36206C17.0198 4.36206 16.7441 4.47626 16.5408 4.67954C16.3376 4.88282 16.2234 5.15853 16.2234 5.44602V8.69788C16.2234 8.98534 16.3377 9.26101 16.5409 9.46424L18.7089 11.6322C18.9121 11.8354 19.1878 11.9495 19.4752 11.9495C19.7626 11.9495 20.0383 11.8354 20.2416 11.6322L20.2405 11.6365Z" fill="#034B5B"/>
</svg>
