<?xml version="1.0" encoding="utf-8"?>
<!-- Generator: Adobe Illustrator 28.1.0, SVG Export Plug-In . SVG Version: 6.00 Build 0)  -->
<svg version="1.1" id="Layer_1" xmlns="http://www.w3.org/2000/svg" xmlns:xlink="http://www.w3.org/1999/xlink" x="0px" y="0px"
	 viewBox="0 0 64 65" style="enable-background:new 0 0 64 65;" xml:space="preserve">
<style type="text/css">
	.st0{fill:#1E6CB5;}
	.st1{fill:#FCD30A;}
</style>
<g>
	<g id="Layer_1_00000057141379856879904440000000730581784414120352_">
		<g>
			<path class="st0" d="M50,27.9c-0.7,0-1.4,0.1-2,0.4c-0.7-2.3-2.8-4-5.3-4c-0.7,0-1.4,0.1-2.1,0.4c-0.7-2.2-2.8-3.8-5.3-3.8
				c-0.6,0-1.2,0.1-1.8,0.3v-5.9c0-3.1-2.5-5.6-5.6-5.6s-5.6,2.5-5.6,5.6v24.1l-2.2-3.2l0-0.1c-2.1-2.6-5.9-3.2-8.7-1.4
				c-1.5,1-2.5,2.5-2.8,4.2c-0.3,1.7,0,3.5,1,5l9.7,15.3l0,0.1C21.8,62.8,26,65,30.4,65h10.9c7.9,0,14.3-6.4,14.3-14.3V33.4
				C55.5,30.4,53,27.9,50,27.9L50,27.9z M51.7,50.7c0,5.8-4.7,10.4-10.4,10.4H30.4c-3.2,0-6.1-1.5-7.9-4.1l-9.7-15.3l0-0.1
				c-0.4-0.6-0.6-1.4-0.4-2.1s0.6-1.4,1.2-1.8c1.2-0.8,2.7-0.5,3.6,0.5l9,13.4V15.2c0-1,0.8-1.8,1.8-1.8s1.8,0.8,1.8,1.8v19h3.8
				v-7.8c0-1,0.8-1.8,1.8-1.8c1,0,1.8,0.8,1.8,1.8v7.8h3.8v-4.4c0-1,0.8-1.8,1.8-1.8c1,0,1.8,0.8,1.8,1.8v4.4h3.8v-0.8
				c0-1,0.8-1.8,1.8-1.8c1,0,1.8,0.8,1.8,1.8L51.7,50.7L51.7,50.7L51.7,50.7z"/>
			<rect x="25.9" class="st1" width="3.8" height="5.3"/>
			<rect x="32.7" y="3.6" transform="matrix(0.6737 -0.739 0.739 0.6737 7.4964 27.9364)" class="st1" width="5.3" height="3.8"/>
			
				<rect x="36.4" y="10.7" transform="matrix(0.9957 -9.254437e-02 9.254437e-02 0.9957 -1.0032 3.6659)" class="st1" width="5.3" height="3.8"/>
			<rect x="18.3" y="2.8" transform="matrix(0.739 -0.6737 0.6737 0.739 1.583 15.04)" class="st1" width="3.8" height="5.3"/>
			
				<rect x="14.6" y="10" transform="matrix(9.254433e-02 -0.9957 0.9957 9.254433e-02 2.4281 27.9605)" class="st1" width="3.8" height="5.3"/>
		</g>
	</g>
</g>
</svg>
