<?xml version="1.0" encoding="utf-8"?>
<!-- Generator: Adobe Illustrator 28.1.0, SVG Export Plug-In . SVG Version: 6.00 Build 0)  -->
<svg version="1.1" id="Layer_1" xmlns="http://www.w3.org/2000/svg" xmlns:xlink="http://www.w3.org/1999/xlink" x="0px" y="0px"
	 viewBox="0 0 64 65" style="enable-background:new 0 0 64 65;" xml:space="preserve">
<style type="text/css">
	.st0{fill:#FDD303;}
	.st1{fill:#FFFFFF;}
</style>
<g>
	<g id="Layer_1_00000040551974561487376360000006281042953374995891_">
		<g>
			<g id="Layer_3">
				<path class="st0" d="M32.7,47c0-6.5,4.3-12.3,10.6-14.1V13.5h-8.1V6.3H30c0-2.9-2.4-5.2-5.4-5.1c-2.8,0-5.1,2.3-5.2,5.1h-5.3
					v7.2H5.6v47h35.9C36.2,58.2,32.7,52.9,32.7,47L32.7,47L32.7,47z M12.5,52.3h-1v-1h1V52.3z M12.5,43.8h-1v-1h1V43.8z M12.5,35.4
					h-1v-1h1V35.4z M12.5,26.8h-1v-1h1V26.8z"/>
			</g>
			<g id="Layer_4">
				<path class="st1" d="M5.2,65h38.9c1.6,0,3.1-0.9,3.8-2.4C56.5,62.3,63.3,55,63,46.4c-0.3-8-6.6-14.5-14.6-15V13.1
					c0-2.3-1.9-4.2-4.2-4.2h-7.8V6.2c0-0.6-0.5-1-1-1H31c-0.6-3.4-3.9-5.7-7.4-5.1C21,0.6,19,2.6,18.5,5.2h-4.3c-0.6,0-1,0.5-1,1
					v2.6h-8C2.9,8.9,1,10.8,1,13.1v47.7C1,63.1,2.9,65,5.2,65L5.2,65z M47.4,33.4C54.9,33.4,61,39.5,61,47s-6.1,13.6-13.6,13.6
					S33.8,54.5,33.8,47S39.9,33.4,47.4,33.4L47.4,33.4z M36.4,10.9h7.8c1.2,0,2.1,1,2.1,2.1v18.3c-0.6,0-1.3,0.1-1.9,0.3V13.5
					c0-0.6-0.5-1-1-1h-7C36.4,12.5,36.4,10.9,36.4,10.9z M15.2,7.2h4.2c0.6,0,1-0.5,1-1c0.1-2.3,2-4.2,4.3-4.2
					c2.3,0.1,4.1,1.9,4.1,4.2c0,0.6,0.5,1,1,1H34v6H15C15.2,13.3,15.2,7.2,15.2,7.2z M13.1,14.5c0.1,0.5,0.5,0.8,1,0.8h21.1
					c0.5,0,0.9-0.3,1-0.8h6v17.7C34,35,29.7,43.9,32.4,52.1c1,2.9,2.8,5.5,5.2,7.4h-31v-45C6.7,14.5,13.1,14.5,13.1,14.5z M3,13.1
					C3,11.9,5.2,11,5.2,11h7.9v1.5H5.7c-0.6,0-1,0.5-1,1v47c0,0,0.5,1,1,1h35.7c4.3,1.8,15,1.5-36.2,1.5C4,63,3.1,62,3,60.9L3,13.1
					L3,13.1z M10.4,26.8v-0.9c0-0.6,0.5-1,1-1h0.9c0.6,0,1,0.5,1,1v0.9c0,0.6-0.5,1-1,1h-0.9C10.9,27.9,10.4,27.4,10.4,26.8z
					 M18.3,25.3h21.5c0.5,0,1,0.4,1.1,0.9c0.1,0.6-0.4,1.1-1,1.1H18.3c-0.5,0-1-0.4-1.1-0.9C17.2,25.8,17.7,25.3,18.3,25.3
					L18.3,25.3z M10.4,35.3v-0.9c0-0.6,0.5-1,1-1h0.9c0.6,0,1,0.5,1,1v0.9c0,0.6-0.5,1-1,1h-0.9C10.9,36.3,10.4,35.9,10.4,35.3z
					 M18.3,33.9h16.2c0.5,0,1,0.4,1.1,0.9c0.1,0.6-0.4,1.1-1,1.1H18.3c-0.5,0-1-0.4-1.1-0.9C17.2,34.4,17.7,33.9,18.3,33.9z
					 M10.4,43.7v-0.9c0-0.6,0.5-1,1-1h0.9c0.6,0,1,0.5,1,1v0.9c0,0.6-0.5,1-1,1h-0.9C10.9,44.8,10.4,44.3,10.4,43.7z M18.4,42.3h9.5
					c0.6,0,1.1,0.4,1.1,1s-0.4,1.1-1,1.1h-9.5c-0.6,0-1.1-0.4-1.1-1S17.8,42.3,18.4,42.3z M10.4,52.3v-0.9c0-0.6,0.5-1,1-1h0.9
					c0.6,0,1,0.5,1,1v0.9c0,0.6-0.5,1-1,1h-0.9C10.9,53.4,10.4,52.9,10.4,52.3z M18.4,50.8h8c0.6,0,1.1,0.4,1.1,1s-0.4,1.1-1,1.1h-8
					c-0.6,0-1.1-0.4-1.1-1S17.8,50.8,18.4,50.8z M41.3,45.6l5.1,4.2l7-9c0.4-0.5,1-0.5,1.5-0.2c0.4,0.4,0.5,1,0.2,1.5
					c-8.2,10.6-7.7,10.2-8.3,10.2c-0.6,0.1-0.3,0.2-6.7-5.1c-0.4-0.4-0.5-1-0.1-1.5C40.3,45.4,40.9,45.3,41.3,45.6L41.3,45.6
					L41.3,45.6z"/>
			</g>
		</g>
	</g>
</g>
</svg>
