<svg width="64" height="65" viewBox="0 0 64 65" fill="none" xmlns="http://www.w3.org/2000/svg">
<g clip-path="url(#clip0_22_797)">
<path d="M23.5468 28.1398L25.7041 20.9344L20.0055 16.3398V14.1984H28.1228L30.9068 6.19843H33.0748L35.8801 14.1984H42.6641L43.9975 14.3664V16.3371L38.2988 20.9318L40.4535 28.1371L38.7548 29.4304L32.0001 25.0464L25.2455 29.4304L23.5468 28.1398ZM32.0001 21.8731L36.7121 24.9291L35.2321 19.9824L39.0961 16.8678H33.9895L32.0001 11.1958L30.0135 16.8678H24.9068L28.7708 19.9824L27.2908 24.9291L32.0001 21.8731ZM23.9788 43.4864C6.3388 43.0224 0.000137329 33.7158 0.000137329 25.6971C0.000137329 21.1398 3.4828 17.4198 7.92014 16.9558C6.80547 14.0811 5.9628 11.2784 5.46147 8.84109C5.0668 6.89976 5.56013 4.89976 6.82413 3.35309C8.1148 1.76909 10.0241 0.862427 12.0641 0.862427H51.9388C53.9815 0.862427 55.8908 1.77176 57.1815 3.35309C58.4455 4.90243 58.9388 6.90243 58.5415 8.84109C58.0401 11.2811 57.1975 14.0811 56.0828 16.9558C60.5175 17.4198 64.0028 21.1398 64.0028 25.6971C64.0028 33.7158 57.6641 43.0224 40.0241 43.4864C40.0188 43.6224 40.0028 43.7584 40.0028 43.8944V55.5291C40.0028 61.9611 45.9921 62.1904 46.6748 62.1958H50.6695V64.8624H13.3361V62.1958H17.3308C18.0135 62.1904 24.0028 61.9611 24.0028 55.5291V43.8944C24.0028 43.7558 23.9841 43.6224 23.9815 43.4864H23.9788ZM2.6668 25.6971C2.6668 32.7691 8.24014 40.2918 23.6375 40.8144C23.0108 38.1158 21.5788 35.7158 19.5388 34.0864C14.9068 30.3824 11.4215 24.9478 8.99213 19.5318H8.83214C5.43214 19.5318 2.6668 22.2971 2.6668 25.6971ZM61.3335 25.6971C61.3335 22.2971 58.5681 19.5318 55.1681 19.5318H55.0081C52.5788 24.9504 49.0961 30.3824 44.4615 34.0864C42.4215 35.7184 40.9895 38.1184 40.3628 40.8144C55.7601 40.2918 61.3335 32.7718 61.3335 25.6971ZM24.0508 62.1984H39.9468C38.4455 60.7558 37.3308 58.6491 37.3308 55.5318V43.8971C37.3308 39.1158 39.3201 34.7798 42.7921 32.0038C50.0935 26.1664 54.4295 15.5904 55.9281 8.30509C56.1628 7.15309 55.8695 5.96376 55.1148 5.03843C54.3308 4.08109 53.1735 3.53176 51.9388 3.53176H12.0641C10.8295 3.53176 9.6748 4.08109 8.89347 5.03843C8.1388 5.96376 7.84013 7.15309 8.07747 8.30509C9.57347 15.5878 13.9095 26.1638 21.2081 32.0038C24.6801 34.7771 26.6695 39.1131 26.6695 43.8971V55.5318C26.6695 58.6491 25.5548 60.7558 24.0535 62.1984H24.0508Z" fill="#FF7D44"/>
</g>
<defs>
<clipPath id="clip0_22_797">
<rect width="64" height="64" fill="white" transform="matrix(-1 0 0 1 64 0.865234)"/>
</clipPath>
</defs>
</svg>
