<svg width="20" height="20" viewBox="0 0 20 20" fill="none" xmlns="http://www.w3.org/2000/svg">
<path d="M15.833 9.99458L18.7791 7.11304C19.5666 6.3264 20 5.27978 20 4.16649C20 3.05321 19.5666 2.00742 18.7791 1.21995C17.9923 0.433315 16.9456 0 15.833 0C14.7204 0 13.6736 0.433315 12.8861 1.21995C11.2609 2.84488 11.2609 5.48811 12.8894 7.11554L15.833 9.99375V9.99458ZM13.4753 1.80992C14.1053 1.18078 14.9421 0.834132 15.833 0.834132C16.7239 0.834132 17.5606 1.18078 18.1898 1.80992C18.8199 2.43906 19.1666 3.27653 19.1666 4.16733C19.1666 5.05812 18.8199 5.89475 18.1932 6.52139L15.833 8.82963L13.4753 6.52473C12.1752 5.22478 12.1752 3.10904 13.4753 1.80992ZM8.33236 14.1669C8.33236 13.0545 7.89899 12.0078 7.11143 11.2204C6.32469 10.4337 5.27794 10.0004 4.16535 10.0004C3.05275 10.0004 2.006 10.4337 1.21844 11.2204C-0.4067 12.8453 -0.4067 15.4885 1.22177 17.116L4.16535 19.9942L7.11143 17.1126C7.89899 16.326 8.33236 15.2802 8.33236 14.1669ZM4.16535 18.8292L1.80765 16.5243C0.507543 15.2244 0.507543 13.1095 1.80765 11.8103C2.4377 11.1812 3.27444 10.8345 4.16535 10.8345C5.05625 10.8345 5.89299 11.1812 6.52221 11.8103C7.15226 12.4395 7.49896 13.2769 7.49896 14.1677C7.49896 15.0585 7.15226 15.8952 6.52554 16.5218L4.16535 18.83V18.8292ZM20 17.0835C20 18.6917 18.6916 20 17.0831 20H6.54305L7.39478 19.1667H17.0823C18.2307 19.1667 19.1658 18.2317 19.1658 17.0835C19.1658 15.9352 18.2307 15.0002 17.0823 15.0002H12.9152C11.3068 15.0002 9.99833 13.6919 9.99833 12.0837C9.99833 10.5729 11.1576 9.34128 12.6311 9.19545L13.4536 10.0004H12.9152C11.7668 10.0004 10.8317 10.9354 10.8317 12.0837C10.8317 13.2319 11.7668 14.1669 12.9152 14.1669H17.0823C18.6907 14.1669 20 15.4752 20 17.0835Z" fill="#FF7D44"/>
</svg>
