<svg version="1.2" xmlns="http://www.w3.org/2000/svg" viewBox="0 0 64 65" width="64" height="65">
	<title>icon-goals-3-svg</title>
	<defs>
		<clipPath clipPathUnits="userSpaceOnUse" id="cp1">
			<path d="m0 0.87h64v64h-64z"/>
		</clipPath>
	</defs>
	<style>
		.s0 { fill: #ffd038 } 
	</style>
	<g id="Clip-Path" clip-path="url(#cp1)">
		<g>
			<path fill-rule="evenodd" class="s0" d="m64 7.5v57.4h-64v-41.8c0-1.8 0.7-3.5 2-4.7l7.2-7.3c2.9-2.9 8.1-2.9 11 0l6.5 6.5v-10.1c0-3.6 3-6.6 6.6-6.6h24c3.7 0 6.7 3 6.7 6.6zm-2.7 0c0-2.2-1.8-4-4-4h-24c-2.2 0-4 1.8-4 4v54.7h32zm-24 38.7h5.4v2.6h-5.4zm10.7 0h5.3v2.7h-5.3zm-10.7-32h5.4v2.7h-5.4zm10.7 0h5.3v2.6h-5.3zm-10.7 10.7h5.4v2.7h-5.4zm10.7 0h5.3v2.6h-5.3zm-10.7 10.7h5.4v2.7h-5.4zm-10.6-12.5c0-1.1-0.4-2.1-1.2-2.8l-7.2-7.2c-1.9-1.9-5.3-1.9-7.2 0l-7.3 7.2c-0.7 0.7-1.1 1.7-1.1 2.8v39.1h24zm21.3 12.5h5.3v2.7h-5.3zm-37.3 0h8v2.6h-8zm0-10.6h8v2.6h-8zm0 21.4h8v2.6h-8z"/>
		</g>
	</g>
</svg>