<svg width="31" height="29" viewBox="0 0 31 29" fill="none" xmlns="http://www.w3.org/2000/svg">
<path d="M24.5417 5.18182H21.9583V3.88636C21.9583 2.85564 21.5501 1.86712 20.8234 1.13829C20.0967 0.409455 19.111 0 18.0833 0H3.875C2.84729 0 1.86166 0.409455 1.13496 1.13829C0.408258 1.86712 0 2.85564 0 3.88636L0 23.3182H2.63629C2.60306 23.5325 2.58536 23.749 2.58333 23.9659C2.58333 25.1684 3.05963 26.3217 3.90745 27.172C4.75528 28.0223 5.90517 28.5 7.10417 28.5C8.30317 28.5 9.45306 28.0223 10.3009 27.172C11.1487 26.3217 11.625 25.1684 11.625 23.9659C11.623 23.749 11.6053 23.5325 11.572 23.3182H19.428C19.3947 23.5325 19.377 23.749 19.375 23.9659C19.375 25.1684 19.8513 26.3217 20.6991 27.172C21.5469 28.0223 22.6968 28.5 23.8958 28.5C25.0948 28.5 26.2447 28.0223 27.0925 27.172C27.9404 26.3217 28.4167 25.1684 28.4167 23.9659C28.4146 23.749 28.3969 23.5325 28.3637 23.3182H31V11.6591C30.9979 9.94184 30.3169 8.29552 29.1061 7.08124C27.8954 5.86696 26.2539 5.18388 24.5417 5.18182ZM24.5417 7.77273C25.5694 7.77273 26.555 8.18218 27.2817 8.91102C28.0084 9.63985 28.4167 10.6284 28.4167 11.6591V12.9545H21.9583V7.77273H24.5417ZM9.04167 23.9659C9.04167 24.4813 8.83754 24.9755 8.47419 25.3399C8.11083 25.7044 7.61802 25.9091 7.10417 25.9091C6.59031 25.9091 6.0975 25.7044 5.73415 25.3399C5.3708 24.9755 5.16667 24.4813 5.16667 23.9659C5.16746 23.7445 5.20816 23.5251 5.28679 23.3182H8.92154C9.00018 23.5251 9.04087 23.7445 9.04167 23.9659ZM19.375 20.7273H2.58333V3.88636C2.58333 3.54279 2.71942 3.21328 2.96165 2.97034C3.20389 2.72739 3.53243 2.59091 3.875 2.59091H18.0833C18.4259 2.59091 18.7544 2.72739 18.9967 2.97034C19.2389 3.21328 19.375 3.54279 19.375 3.88636V20.7273ZM25.8333 23.9659C25.8333 24.4813 25.6292 24.9755 25.2659 25.3399C24.9025 25.7044 24.4097 25.9091 23.8958 25.9091C23.382 25.9091 22.8892 25.7044 22.5258 25.3399C22.1625 24.9755 21.9583 24.4813 21.9583 23.9659C21.9589 23.7445 21.9996 23.525 22.0785 23.3182H25.7132C25.7921 23.525 25.8328 23.7445 25.8333 23.9659ZM21.9583 20.7273V15.5455H28.4167V20.7273H21.9583Z" fill="#FF7D44"/>
</svg>
