<svg width="30" height="31" viewBox="0 0 30 31" fill="none" xmlns="http://www.w3.org/2000/svg">
<g clip-path="url(#clip0_27_1008)">
<path d="M6.25 8.36523C6.25 7.67773 6.8125 7.11523 7.5 7.11523C8.1875 7.11523 8.75 7.67773 8.75 8.36523C8.75 9.05273 8.1875 9.61523 7.5 9.61523C6.8125 9.61523 6.25 9.05273 6.25 8.36523ZM30 7.74023V18.9902C30 22.0902 27.475 24.6152 24.375 24.6152H15.625V28.3652H21.25C21.6 28.3652 21.875 28.6402 21.875 28.9902C21.875 29.3402 21.6 29.6152 21.25 29.6152H8.75C8.4 29.6152 8.125 29.3402 8.125 28.9902C8.125 28.6402 8.4 28.3652 8.75 28.3652H14.375V24.6152H5.625C2.525 24.6152 0 22.0902 0 18.9902V7.74023C0 4.64023 2.525 2.11523 5.625 2.11523H24.375C27.475 2.11523 30 4.64023 30 7.74023ZM1.25 18.9902C1.25 19.9152 1.5375 20.7777 2.0375 21.4902L10.375 13.1527C11.7375 11.7902 14.1 11.7902 15.4625 13.1527L16.25 13.9402C17.1375 14.8277 18.6875 14.8277 19.575 13.9402L28.0875 5.42773C27.3125 4.19023 25.9375 3.35273 24.375 3.35273H5.625C3.2125 3.35273 1.25 5.31523 1.25 7.72773V18.9902ZM28.75 7.74023C28.75 7.37773 28.7 7.01523 28.625 6.67773L20.475 14.8277C19.1125 16.1902 16.75 16.1902 15.3875 14.8277L14.6 14.0402C13.7125 13.1527 12.1625 13.1527 11.275 14.0402L2.9125 22.4027C3.6625 23.0027 4.6125 23.3652 5.65 23.3652H24.4C26.8125 23.3652 28.775 21.4027 28.775 18.9902V7.74023H28.75Z" fill="#FF7D44"/>
</g>
<defs>
<clipPath id="clip0_27_1008">
<rect width="30" height="30" fill="white" transform="translate(0 0.865234)"/>
</clipPath>
</defs>
</svg>
