<svg width="30" height="31" viewBox="0 0 30 31" fill="none" xmlns="http://www.w3.org/2000/svg">
<g clip-path="url(#clip0_27_990)">
<path d="M28.975 12.9277C28.35 12.3652 27.55 12.0652 26.7125 12.1152C25.875 12.1527 25.1 12.5152 24.5375 13.1402L19.875 18.2652C19.4875 16.8777 18.2125 15.8652 16.7 15.8652H4.375C1.9625 15.8652 0 17.8277 0 20.2402V26.4902C0 28.9027 1.9625 30.8652 4.375 30.8652H11.825C15.2125 30.8652 18.4375 29.4152 20.6875 26.8902L29.2 17.3402C30.3375 16.0652 30.2375 14.0902 28.975 12.9277ZM28.275 16.5027L19.7625 26.0527C17.75 28.3152 14.8625 29.6152 11.825 29.6152H4.375C2.65 29.6152 1.25 28.2152 1.25 26.4902V20.2402C1.25 18.5152 2.65 17.1152 4.375 17.1152H16.7C17.8375 17.1152 18.75 18.0402 18.75 19.1652C18.75 20.1777 17.9875 21.0527 17 21.1902L9.3 22.1152C8.9625 22.1527 8.7125 22.4652 8.75 22.8152C8.7875 23.1527 9.0875 23.4152 9.45 23.3652L17.1625 22.4402C18.4375 22.2527 19.475 21.3402 19.85 20.1652L25.4625 13.9902C25.8 13.6152 26.2625 13.4027 26.775 13.3777C27.275 13.3527 27.7625 13.5277 28.1375 13.8652C28.9 14.5652 28.9625 15.7527 28.275 16.5152V16.5027ZM6.25 4.91523C6.25 3.36523 7.5125 2.11523 9.05 2.11523H10V1.49023C10 1.14023 10.275 0.865234 10.625 0.865234C10.975 0.865234 11.25 1.14023 11.25 1.49023V2.11523H11.9375C13.1625 2.11523 14.3 2.77773 14.9125 3.84023C15.0875 4.14023 14.9875 4.51523 14.6875 4.69023C14.3875 4.86523 14 4.76523 13.8375 4.46523C13.45 3.79023 12.725 3.36523 11.9375 3.36523H9.05C8.1875 3.36523 7.5 4.06523 7.5 4.91523C7.5 5.59023 7.925 6.17773 8.5625 6.39023L13.0875 7.90273C14.2375 8.29023 15 9.35273 15 10.5652C15 12.1152 13.7375 13.3652 12.2 13.3652H11.25V13.9902C11.25 14.3402 10.975 14.6152 10.625 14.6152C10.275 14.6152 10 14.3402 10 13.9902V13.3652H9.3125C8.0875 13.3652 6.95 12.7027 6.3375 11.6402C6.1625 11.3402 6.2625 10.9652 6.5625 10.7902C6.8625 10.6152 7.25 10.7152 7.4125 11.0152C7.8 11.6902 8.525 12.1152 9.3125 12.1152H12.2C13.0625 12.1152 13.75 11.4152 13.75 10.5652C13.75 9.89023 13.325 9.30273 12.6875 9.09023L8.1625 7.57773C7.0125 7.19023 6.25 6.12773 6.25 4.91523Z" fill="#FF7D44"/>
</g>
<defs>
<clipPath id="clip0_27_990">
<rect width="30" height="30" fill="white" transform="translate(0 0.865234)"/>
</clipPath>
</defs>
</svg>
