<svg version="1.2" xmlns="http://www.w3.org/2000/svg" viewBox="0 0 64 65" width="64" height="65">
	<title>icon-goals-2-svg</title>
	<defs>
		<clipPath clipPathUnits="userSpaceOnUse" id="cp1">
			<path d="m0 0.87h64v64h-64z"/>
		</clipPath>
	</defs>
	<style>
		.s0 { fill: #ffd038 } 
	</style>
	<g id="Clip-Path" clip-path="url(#cp1)">
		<g>
			<path fill-rule="evenodd" class="s0" d="m64 32.9v32h-32c-17.6 0-32-14.4-32-32 0-17.7 14.4-32 32-32 17.6 0 32 14.3 32 32zm-2.7 0c0-16.2-13.1-29.4-29.3-29.4-16.2 0-29.3 13.2-29.3 29.4 0 16.1 13.1 29.3 29.3 29.3h29.3zm-16.9 5.7l1.8 2c-0.2 0.2-6.4 5.6-14.2 5.6-7.8 0-14-5.4-14.2-5.6l1.8-2c0 0 5.7 5 12.4 5 6.7 0 12.4-5 12.4-5zm-25.7-11c0-1.5 1.2-2.7 2.6-2.7 1.5 0 2.7 1.2 2.7 2.7 0 1.4-1.2 2.6-2.7 2.6-1.4 0-2.6-1.2-2.6-2.6zm21.3 0c0-1.5 1.2-2.7 2.7-2.7 1.4 0 2.6 1.2 2.6 2.7 0 1.4-1.2 2.6-2.6 2.6-1.5 0-2.7-1.2-2.7-2.6z"/>
		</g>
	</g>
</svg>