<svg width="40" height="37" viewBox="0 0 40 37" fill="none" xmlns="http://www.w3.org/2000/svg">
<path d="M39.7741 30.0247C39.7741 33.4405 37.0525 36.1674 33.7072 36.1674H10.1201C6.77474 36.1674 4.05316 33.4405 4.05316 30.0247V6.14273C4.05316 2.75561 6.77474 0 10.1201 0H33.7072C37.0525 0 39.7741 2.75561 39.7741 6.14273V30.0247Z" fill="#213358"/>
<path d="M39.7825 30.0247C39.7825 33.4176 37.0665 36.1675 33.7156 36.1675H10.1285C6.7775 36.1675 4.05872 33.4176 4.05872 30.0247V6.14275C4.05872 2.74987 6.7775 0 10.1285 0H33.7156C37.0665 0 39.7825 2.74987 39.7825 6.14275V30.0247Z" fill="#034B5B"/>
<path d="M0 4.08643H16.7202V30.3559H0" fill="#FF7D44"/>
<path d="M16.6121 30.8859L36.3721 31.0581L16.6121 30.8572V30.8859Z" fill="#65AFCD"/>
<path d="M30.7587 16.706L25.3439 9.09935C24.6068 8.06597 24.0114 7.20485 23.6996 6.74561H16.6121V30.8572L36.3721 31.0582V19.0024L30.7587 16.706Z" fill="#F7F7F7"/>
<path d="M27.9805 31.8618H37.3643V28.2163H27.9805V31.8618Z" fill="#003B49"/>
<path d="M22.9342 30.599C22.9342 34.1297 20.0992 37.0001 16.6122 37.0001C13.0968 37.0001 10.2618 34.1297 10.2618 30.599C10.2618 27.0684 13.0968 24.198 16.6122 24.198C20.0992 24.198 22.9342 27.0684 22.9342 30.599Z" fill="black"/>
<path d="M16.6121 34.0434C14.741 34.0434 13.2101 32.4933 13.2101 30.5988C13.2101 28.7044 14.741 27.1543 16.6121 27.1543C18.4549 27.1543 19.9857 28.7044 19.9857 30.5988C19.9857 32.4933 18.4549 34.0434 16.6121 34.0434Z" fill="#F7F7F7"/>
<path d="M24.9187 11.855L20.4678 16.3616H28.1222L24.9187 11.855Z" fill="#003B49"/>
<path d="M23.3312 9.61597L18.4266 14.5818V16.3614H18.6535L24.1533 10.7928L23.3312 9.61597Z" fill="#003B49"/>
<path d="M20.6096 8.75464H18.4266V10.9362L20.6096 8.75464Z" fill="#003B49"/>
</svg>
