<svg version="1.2" xmlns="http://www.w3.org/2000/svg" viewBox="0 0 200 181" width="200" height="181">
	<title>logo-svg</title>
	<defs>
		<clipPath clipPathUnits="userSpaceOnUse" id="cp1">
			<path d="m-157-292h1426v756h-1426z"/>
		</clipPath>
	</defs>
	<style>
		.s0 { fill: #136ab2 } 
		.s1 { fill: #ffd038 } 
	</style>
	<g id="Clip-Path: Clip-Path: Page 1" clip-path="url(#cp1)">
		<g id="Clip-Path: Page 1">
			<g id="Page 1">
				<path id="Path 8" fill-rule="evenodd" class="s0" d="m271.5 87.8h23c15 0 27.1-10.2 27.1-26.6 0-13.7-9.5-24.9-26.9-24.9h-23.2zm12.5-41.9h9c10.4 0.1 15.4 6 15.4 15.6 0 10.9-5.5 16.6-15.6 16.6h-8.8zm43.7 26.4c1.6 9.3 8.8 16.5 24.9 16.5 17.3 0 24.3-7.3 24.3-16.2 0-7.5-3.1-13.4-22.6-16.9-9.7-1.7-11.8-3.2-11.8-6.2 0-3.3 3-5.2 8.9-5.2 8.5 0 10.3 3.4 11 6h12.5c-0.6-6-5.4-15.1-23-15.1-12.2 0-22.1 5.2-22.1 15.5 0 7 3.2 12.7 21.1 15.8 10.9 1.8 13.2 3.8 13.2 7.4 0 3.3-2.3 5.8-10.3 5.8-8.6 0-12.1-2.9-13.6-7.4zm90.2-32.8c-7.6 0-12.9 5.4-12.9 13 0 7.6 5.5 13 12.9 13 7.6 0 12.8-5.4 12.8-13 0-7.1-5-13-12.8-13zm0 2.7c6.1 0 9.9 4.3 9.9 10.4 0 5.9-3.3 10.2-9.9 10.2-5.9 0-10-4.3-10-10.3 0-5.5 2.9-10.3 10-10.3zm-2.3 16.4v-4.9h2.3c1.6 0 2.2 0.5 2.2 2 0 0.7 0 2.4 0.1 2.9h3.1c-0.1-0.7-0.1-2.1-0.1-2.8 0-1.6-0.4-3-1.5-3.3 1-0.4 1.8-1.5 1.8-3 0-2.3-2-3.6-4.7-3.6h-6.2v12.7zm0.1-10.4h2.4c1.8 0 2.3 0.7 2.3 1.6 0 1.2-0.9 1.6-2.3 1.6h-2.4zm-317.4-7.7c9.1-1.3 13.7-2 22.8-3.2 8.9 4.8 13.3 7.2 22.1 12 16.1-2.3 24.1-3.4 40.2-5.7-8.7-4.7-13-7.1-21.6-11.8-5-2.6-12.9-3.1-22.2-2.1-0.1-0.1-0.1-0.1-0.2-0.1 7.9-1.9 11-4 6-6.6-6.7-3.7-10-5.5-16.8-9.2-7.8-4.2-20.5-4.5-38.2-2q-37.9 5.3-75.8 10.7 32.8 17.8 65.6 35.6c16-2.2 24.1-3.4 40.2-5.6-8.9-4.8-13.3-7.2-22.1-12zm-28.4-15.5c9.1-1.3 13.7-1.9 22.8-3.2 5.4 2.9 8.1 4.4 13.5 7.3-9.1 1.3-13.7 2-22.8 3.2-5.4-2.9-8.1-4.4-13.5-7.3zm87.5 70.8c-11.2 1.6-16.9 2.4-28.1 3.9 0-6.8 0-10.2 0-17 21.7-3 32.6-4.6 54.3-7.6 0.1-10.2 0.1-15.3 0.1-25.5q-34.3 4.8-68.6 9.6c-19.7 2.8-30.3 9.3-30.4 22.5 0 13 0 19.4 0 32.4 0 9.8 5.6 16.6 30 13.2 11.5-1.6 17.2-2.4 28.6-4 0 7.1 0 10.7 0 17.8-23.5 3.3-35.2 5-58.7 8.3 0 10.2 0 15.3 0 25.5q36.4-5.1 72.9-10.3c19.5-2.7 30.3-9 30.3-21.8 0.1-12.9 0.1-19.4 0.1-32.3 0-13.4-9.7-17.6-30.5-14.7z"/>
				<path id="Path 9" fill-rule="evenodd" class="s1" d="m77.5 81.2c-0.1 25.4-0.1 46.5-0.2 71.9 0 12-5.9 25.8-16.6 19.9-19.6-10.6-29.3-15.9-48.9-26.6 0.1-37.1 0.1-81.4 0.2-118.5 19.6 10.6 29.3 15.9 48.9 26.6 10.2 5.6 16.6 13.9 16.6 26.7zm-28.1 24.6c0-7.2-3.4-14.5-7.4-16.2-4.1-1.6-7.6 3.3-7.6 10.7 0 6 2.3 12 5.3 14.8v16.1l4.3 2.3v-16.8c3.1-0.5 5.4-4.8 5.4-10.9z"/>
			</g>
		</g>
	</g>
</svg>