<svg width="54" height="54" viewBox="0 0 54 54" fill="none" xmlns="http://www.w3.org/2000/svg">
<path fill-rule="evenodd" clip-rule="evenodd" d="M0.609131 26.9999C0.609131 20.0007 3.38958 13.2881 8.33882 8.33882C13.2881 3.38958 20.0007 0.609131 26.9999 0.609131C33.9992 0.609131 40.7118 3.38958 45.6611 8.33882C50.6103 13.2881 53.3907 20.0007 53.3907 26.9999C53.3907 33.9992 50.6103 40.7118 45.6611 45.6611C40.7118 50.6103 33.9992 53.3907 26.9999 53.3907C20.0007 53.3907 13.2881 50.6103 8.33882 45.6611C3.38958 40.7118 0.609131 33.9992 0.609131 26.9999ZM21.6888 17.4069C22.0791 17.1931 22.5198 17.0886 22.9645 17.1042C23.4092 17.1199 23.8414 17.2552 24.2157 17.4959L35.7617 24.9184C36.1103 25.1424 36.3972 25.4503 36.5958 25.814C36.7944 26.1778 36.8985 26.5855 36.8985 26.9999C36.8985 27.4144 36.7944 27.8221 36.5958 28.1858C36.3972 28.5495 36.1103 28.8575 35.7617 29.0815L24.2157 36.5039C23.8419 36.7446 23.4102 36.8801 22.9659 36.8962C22.5216 36.9123 22.0812 36.8083 21.691 36.5953C21.3007 36.3823 20.9751 36.0681 20.7483 35.6857C20.5216 35.3034 20.402 34.8669 20.4022 34.4224V19.5775C20.4022 19.1336 20.5216 18.6978 20.748 18.3159C20.9744 17.934 21.2993 17.62 21.6888 17.4069Z" fill="white"/>
</svg>
