<svg width="228" height="183" viewBox="0 0 228 183" fill="none" xmlns="http://www.w3.org/2000/svg">
<rect width="2.47619" height="2.47619" rx="1.2381" fill="#003B49"/>
<rect x="22.4762" width="2.47619" height="2.47619" rx="1.2381" fill="#003B49"/>
<rect x="44.9524" width="2.47619" height="2.47619" rx="1.2381" fill="#003B49"/>
<rect x="67.4286" width="2.47619" height="2.47619" rx="1.2381" fill="#003B49"/>
<rect x="89.9048" width="2.47619" height="2.47619" rx="1.2381" fill="#003B49"/>
<rect x="112.381" width="2.47619" height="2.47619" rx="1.2381" fill="#003B49"/>
<rect x="134.857" width="2.47619" height="2.47619" rx="1.2381" fill="#003B49"/>
<rect x="157.333" width="2.47619" height="2.47619" rx="1.2381" fill="#003B49"/>
<rect x="179.81" width="2.47619" height="2.47619" rx="1.2381" fill="#003B49"/>
<rect x="202.286" width="2.47619" height="2.47619" rx="1.2381" fill="#003B49"/>
<rect x="224.762" width="2.47619" height="2.47619" rx="1.2381" fill="#003B49"/>
<rect y="22.4761" width="2.47619" height="2.47619" rx="1.2381" fill="#003B49"/>
<rect x="22.4762" y="22.4761" width="2.47619" height="2.47619" rx="1.2381" fill="#003B49"/>
<rect x="44.9524" y="22.4761" width="2.47619" height="2.47619" rx="1.2381" fill="#003B49"/>
<rect x="67.4286" y="22.4761" width="2.47619" height="2.47619" rx="1.2381" fill="#003B49"/>
<rect x="89.9048" y="22.4761" width="2.47619" height="2.47619" rx="1.2381" fill="#003B49"/>
<rect x="112.381" y="22.4761" width="2.47619" height="2.47619" rx="1.2381" fill="#003B49"/>
<rect x="134.857" y="22.4761" width="2.47619" height="2.47619" rx="1.2381" fill="#003B49"/>
<rect x="157.333" y="22.4761" width="2.47619" height="2.47619" rx="1.2381" fill="#003B49"/>
<rect x="179.81" y="22.4761" width="2.47619" height="2.47619" rx="1.2381" fill="#003B49"/>
<rect x="202.286" y="22.4761" width="2.47619" height="2.47619" rx="1.2381" fill="#003B49"/>
<rect x="224.762" y="22.4761" width="2.47619" height="2.47619" rx="1.2381" fill="#003B49"/>
<rect y="44.9521" width="2.47619" height="2.47619" rx="1.2381" fill="#003B49"/>
<rect x="22.4762" y="44.9521" width="2.47619" height="2.47619" rx="1.2381" fill="#003B49"/>
<rect x="44.9524" y="44.9521" width="2.47619" height="2.47619" rx="1.2381" fill="#003B49"/>
<rect x="67.4286" y="44.9521" width="2.47619" height="2.47619" rx="1.2381" fill="#003B49"/>
<rect x="89.9048" y="44.9521" width="2.47619" height="2.47619" rx="1.2381" fill="#003B49"/>
<rect x="112.381" y="44.9521" width="2.47619" height="2.47619" rx="1.2381" fill="#003B49"/>
<rect x="134.857" y="44.9521" width="2.47619" height="2.47619" rx="1.2381" fill="#003B49"/>
<rect x="157.333" y="44.9521" width="2.47619" height="2.47619" rx="1.2381" fill="#003B49"/>
<rect x="179.81" y="44.9521" width="2.47619" height="2.47619" rx="1.2381" fill="#003B49"/>
<rect x="202.286" y="44.9521" width="2.47619" height="2.47619" rx="1.2381" fill="#003B49"/>
<rect x="224.762" y="44.9521" width="2.47619" height="2.47619" rx="1.2381" fill="#003B49"/>
<rect y="67.4287" width="2.47619" height="2.47619" rx="1.2381" fill="#003B49"/>
<rect x="22.4762" y="67.4287" width="2.47619" height="2.47619" rx="1.2381" fill="#003B49"/>
<rect x="44.9524" y="67.4287" width="2.47619" height="2.47619" rx="1.2381" fill="#003B49"/>
<rect x="67.4286" y="67.4287" width="2.47619" height="2.47619" rx="1.2381" fill="#003B49"/>
<rect x="89.9048" y="67.4287" width="2.47619" height="2.47619" rx="1.2381" fill="#003B49"/>
<rect x="112.381" y="67.4287" width="2.47619" height="2.47619" rx="1.2381" fill="#003B49"/>
<rect x="134.857" y="67.4287" width="2.47619" height="2.47619" rx="1.2381" fill="#003B49"/>
<rect x="157.333" y="67.4287" width="2.47619" height="2.47619" rx="1.2381" fill="#003B49"/>
<rect x="179.81" y="67.4287" width="2.47619" height="2.47619" rx="1.2381" fill="#003B49"/>
<rect x="202.286" y="67.4287" width="2.47619" height="2.47619" rx="1.2381" fill="#003B49"/>
<rect x="224.762" y="67.4287" width="2.47619" height="2.47619" rx="1.2381" fill="#003B49"/>
<rect y="89.9048" width="2.47619" height="2.47619" rx="1.2381" fill="#003B49"/>
<rect x="22.4762" y="89.9048" width="2.47619" height="2.47619" rx="1.2381" fill="#003B49"/>
<rect x="44.9524" y="89.9048" width="2.47619" height="2.47619" rx="1.2381" fill="#003B49"/>
<rect x="67.4286" y="89.9048" width="2.47619" height="2.47619" rx="1.2381" fill="#003B49"/>
<rect x="89.9048" y="89.9048" width="2.47619" height="2.47619" rx="1.2381" fill="#003B49"/>
<rect x="112.381" y="89.9048" width="2.47619" height="2.47619" rx="1.2381" fill="#003B49"/>
<rect x="134.857" y="89.9048" width="2.47619" height="2.47619" rx="1.2381" fill="#003B49"/>
<rect x="157.333" y="89.9048" width="2.47619" height="2.47619" rx="1.2381" fill="#003B49"/>
<rect x="179.81" y="89.9048" width="2.47619" height="2.47619" rx="1.2381" fill="#003B49"/>
<rect x="202.286" y="89.9048" width="2.47619" height="2.47619" rx="1.2381" fill="#003B49"/>
<rect x="224.762" y="89.9048" width="2.47619" height="2.47619" rx="1.2381" fill="#003B49"/>
<rect y="112.381" width="2.47619" height="2.47619" rx="1.2381" fill="#003B49"/>
<rect x="22.4762" y="112.381" width="2.47619" height="2.47619" rx="1.2381" fill="#003B49"/>
<rect x="44.9524" y="112.381" width="2.47619" height="2.47619" rx="1.2381" fill="#003B49"/>
<rect x="67.4286" y="112.381" width="2.47619" height="2.47619" rx="1.2381" fill="#003B49"/>
<rect x="89.9048" y="112.381" width="2.47619" height="2.47619" rx="1.2381" fill="#003B49"/>
<rect x="112.381" y="112.381" width="2.47619" height="2.47619" rx="1.2381" fill="#003B49"/>
<rect x="134.857" y="112.381" width="2.47619" height="2.47619" rx="1.2381" fill="#003B49"/>
<rect x="157.333" y="112.381" width="2.47619" height="2.47619" rx="1.2381" fill="#003B49"/>
<rect x="179.81" y="112.381" width="2.47619" height="2.47619" rx="1.2381" fill="#003B49"/>
<rect x="202.286" y="112.381" width="2.47619" height="2.47619" rx="1.2381" fill="#003B49"/>
<rect x="224.762" y="112.381" width="2.47619" height="2.47619" rx="1.2381" fill="#003B49"/>
<rect y="134.857" width="2.47619" height="2.47619" rx="1.2381" fill="#003B49"/>
<rect x="22.4762" y="134.857" width="2.47619" height="2.47619" rx="1.2381" fill="#003B49"/>
<rect x="44.9524" y="134.857" width="2.47619" height="2.47619" rx="1.2381" fill="#003B49"/>
<rect x="67.4286" y="134.857" width="2.47619" height="2.47619" rx="1.2381" fill="#003B49"/>
<rect x="89.9048" y="134.857" width="2.47619" height="2.47619" rx="1.2381" fill="#003B49"/>
<rect x="112.381" y="134.857" width="2.47619" height="2.47619" rx="1.2381" fill="#003B49"/>
<rect x="134.857" y="134.857" width="2.47619" height="2.47619" rx="1.2381" fill="#003B49"/>
<rect x="157.333" y="134.857" width="2.47619" height="2.47619" rx="1.2381" fill="#003B49"/>
<rect x="179.81" y="134.857" width="2.47619" height="2.47619" rx="1.2381" fill="#003B49"/>
<rect x="202.286" y="134.857" width="2.47619" height="2.47619" rx="1.2381" fill="#003B49"/>
<rect x="224.762" y="134.857" width="2.47619" height="2.47619" rx="1.2381" fill="#003B49"/>
<rect y="157.333" width="2.47619" height="2.47619" rx="1.2381" fill="#003B49"/>
<rect x="22.4762" y="157.333" width="2.47619" height="2.47619" rx="1.2381" fill="#003B49"/>
<rect x="44.9524" y="157.333" width="2.47619" height="2.47619" rx="1.2381" fill="#003B49"/>
<rect x="67.4286" y="157.333" width="2.47619" height="2.47619" rx="1.2381" fill="#003B49"/>
<rect x="89.9048" y="157.333" width="2.47619" height="2.47619" rx="1.2381" fill="#003B49"/>
<rect x="112.381" y="157.333" width="2.47619" height="2.47619" rx="1.2381" fill="#003B49"/>
<rect x="134.857" y="157.333" width="2.47619" height="2.47619" rx="1.2381" fill="#003B49"/>
<rect x="157.333" y="157.333" width="2.47619" height="2.47619" rx="1.2381" fill="#003B49"/>
<rect x="179.81" y="157.333" width="2.47619" height="2.47619" rx="1.2381" fill="#003B49"/>
<rect x="202.286" y="157.333" width="2.47619" height="2.47619" rx="1.2381" fill="#003B49"/>
<rect x="224.762" y="157.333" width="2.47619" height="2.47619" rx="1.2381" fill="#003B49"/>
<rect y="179.81" width="2.47619" height="2.47619" rx="1.2381" fill="#003B49"/>
<rect x="22.4762" y="179.81" width="2.47619" height="2.47619" rx="1.2381" fill="#003B49"/>
<rect x="44.9524" y="179.81" width="2.47619" height="2.47619" rx="1.2381" fill="#003B49"/>
<rect x="67.4286" y="179.81" width="2.47619" height="2.47619" rx="1.2381" fill="#003B49"/>
<rect x="89.9048" y="179.81" width="2.47619" height="2.47619" rx="1.2381" fill="#003B49"/>
<rect x="112.381" y="179.81" width="2.47619" height="2.47619" rx="1.2381" fill="#003B49"/>
<rect x="134.857" y="179.81" width="2.47619" height="2.47619" rx="1.2381" fill="#003B49"/>
<rect x="157.333" y="179.81" width="2.47619" height="2.47619" rx="1.2381" fill="#003B49"/>
<rect x="179.81" y="179.81" width="2.47619" height="2.47619" rx="1.2381" fill="#003B49"/>
<rect x="202.286" y="179.81" width="2.47619" height="2.47619" rx="1.2381" fill="#003B49"/>
<rect x="224.762" y="179.81" width="2.47619" height="2.47619" rx="1.2381" fill="#003B49"/>
</svg>
